<?xml version="1.0" encoding="iso-8859-1"?>
<!-- Generator: Adobe Illustrator 21.0.0, SVG Export Plug-In . SVG Version: 6.00 Build 0)  -->
<svg xmlns="http://www.w3.org/2000/svg" xmlns:xlink="http://www.w3.org/1999/xlink" version="1.1" id="Capa_1" x="0px" y="0px" viewBox="0 0 512 512" style="enable-background:new 0 0 512 512;" xml:space="preserve" width="512" height="512">
 <linearGradient id="linear0" gradientUnits="userSpaceOnUse"
 x1="255.9999393808" x2="255.9999393808" y1=".5003002281" y2="512.0640125335">
 <stop offset="0" stop-color="#1cceea"/><stop offset="1" stop-color="#931ade"/>
 </linearGradient>
<g>
	<path d="M351.405,442.405C325.888,467.938,292.006,482,256,482s-69.888-14.063-95.405-39.595c-5.859-5.859-15.352-5.859-21.211,0   s-5.859,15.352,0,21.211C170.57,494.817,211.981,512,256,512s85.43-17.183,116.616-48.384c5.859-5.859,5.859-15.352,0-21.211   S357.265,436.546,351.405,442.405z" fill="url(#linear0)"/>
	<path d="M181.791,399.998c-5.859,5.845-5.859,15.352,0,21.211C201.625,441.058,227.978,452,256,452s54.375-10.942,74.209-30.791   c5.859-5.859,5.859-15.366,0-21.211c-5.859-5.859-15.352-5.859-21.211,0c-28.359,28.389-77.637,28.389-105.996,0   C197.143,394.139,187.65,394.139,181.791,399.998z" fill="url(#linear0)"/>
	<path d="M287.831,378.802c5.845-5.859,5.845-15.366-0.029-21.211c-5.859-5.83-15.352-5.83-21.211,0.029   c-5.625,5.654-15.557,5.654-21.182,0c-5.859-5.874-15.352-5.874-21.211-0.029c-5.874,5.845-5.874,15.352-0.029,21.211   C232.65,387.313,243.959,392,256,392S279.35,387.313,287.831,378.802z" fill="url(#linear0)"/>
	<polygon points="271,181 271,241 305.195,241 325.194,181  " fill="url(#linear0)"/>
	<polygon points="336.806,241 400.272,241 430.272,181 356.805,181  " fill="url(#linear0)"/>
	<polygon points="241,181 186.806,181 206.805,241 241,241  " fill="url(#linear0)"/>
	<polygon points="66.728,151 445.272,151 475.272,91 36.728,91  " fill="url(#linear0)"/>
	<polygon points="155.195,181 81.728,181 111.728,241 175.194,241  " fill="url(#linear0)"/>
	<path d="M121,287c0,24.814,20.186,45,45,45h180c24.814,0,45-20.186,45-45v-16H121V287z" fill="url(#linear0)"/>
	<path d="M497,0H15C6.709,0,0,6.709,0,15v31c0,8.287,6.714,15,15,15h482c8.284,0,15-6.716,15-15V15C512,6.709,505.291,0,497,0z" fill="url(#linear0)"/>
</g>















</svg>
