<svg id="Glyph" height="512" viewBox="0 0 512 512" width="512" xmlns="http://www.w3.org/2000/svg"><path d="m104.672 423.328a56.113 56.113 0 0 0 46.656-46.656 56.113 56.113 0 0 0 -46.656 46.656z"/><path d="m399.336 408a9.034 9.034 0 0 0 -2.531.43 8 8 0 0 1 -9.828-10.157 20.325 20.325 0 0 0 1.023-6.273c0-8.672-5.492-16-12-16s-12 7.328-12 16a20.325 20.325 0 0 0 1.023 6.273 8 8 0 0 1 -9.823 10.157 9.034 9.034 0 0 0 -2.531-.43c-4.773 0-8.664 3.586-8.664 8s3.891 8 8.664 8h46.672c4.773 0 8.664-3.586 8.664-8s-3.896-8-8.669-8z"/><path d="m400 72h-288a40.047 40.047 0 0 0 -40 40v200h368v-200a40.047 40.047 0 0 0 -40-40zm-40 32a8 8 0 1 1 -8 8 8 8 0 0 1 8-8zm0 32a8 8 0 1 1 -8 8 8 8 0 0 1 8-8zm-152 56a8 8 0 0 1 -8 8h-56v56h56a8 8 0 0 1 0 16h-64a8 8 0 0 1 -8-8v-72a8 8 0 0 1 8-8h56v-56h-56a8 8 0 0 1 0-16h64a8 8 0 0 1 8 8zm104 0a8 8 0 0 1 -8 8h-56v56h56a8 8 0 0 1 0 16h-64a8 8 0 0 1 -8-8v-72a8 8 0 0 1 8-8h56v-56h-56a8 8 0 0 1 0-16h64a8 8 0 0 1 8 8zm48 88a8 8 0 1 1 8-8 8 8 0 0 1 -8 8zm0-32a8 8 0 1 1 8-8 8 8 0 0 1 -8 8zm0-32a24 24 0 1 1 24-24 24.027 24.027 0 0 1 -24 24z"/><circle cx="360" cy="192" r="8"/><path d="m392 32h-272a88.1 88.1 0 0 0 -88 88v272a88.1 88.1 0 0 0 88 88h272a88.1 88.1 0 0 0 88-88v-272a88.1 88.1 0 0 0 -88-88zm-296 408a8 8 0 0 1 -8-8 72.079 72.079 0 0 1 72-72 8 8 0 0 1 8 8 72.079 72.079 0 0 1 -72 72zm176-8a8 8 0 0 1 -8 8h-48a8 8 0 0 1 -8-8v-24h16v16h32v-16h16zm14.25-27a8.014 8.014 0 0 1 -11.25 1.25l-35-28.008-35 28.008a8 8 0 0 1 -10-12.5l40-32a8.032 8.032 0 0 1 10 0l40 32a8.013 8.013 0 0 1 1.25 11.25zm113.086 35h-46.672c-13.602 0-24.664-10.766-24.664-24a24.22 24.22 0 0 1 20-23.57v-.43c0-17.648 12.562-32 28-32s28 14.352 28 32v.43a24.22 24.22 0 0 1 20 23.57c0 13.234-11.063 24-24.664 24zm56.664-120a8 8 0 0 1 -8 8h-384a8 8 0 0 1 -8-8v-208a56.068 56.068 0 0 1 56-56h288a56.068 56.068 0 0 1 56 56z"/></svg>