<svg height="464pt" viewBox="0 -1 464 464" width="464pt" xmlns="http://www.w3.org/2000/svg">
 <linearGradient id="linear0" gradientUnits="userSpaceOnUse"
 x1="255.9999393808" x2="255.9999393808" y1=".5003002281" y2="512.0640125335">
 <stop offset="0" stop-color="#1cceea"/><stop offset="1" stop-color="#931ade"/>
 </linearGradient>
<path d="m273.167969 294.976562c17 0 30.832031-13.832031 30.832031-30.832031 0-7.242187 1.710938-14.488281 4.953125-20.953125l14.101563-28.214844h8.945312c2.207031 0 4-1.792968 4-4 0-.871093-.28125-1.703124-.808594-2.410156l-2.976562-3.964844c-13.039063-17.386718-20.214844-38.921874-20.214844-60.65625 0-8.808593-3.433594-17.089843-9.65625-23.3125-6.222656-6.226562-14.511719-9.65625-23.3125-9.65625h-49.414062c-16.378907 0-31.632813 7.335938-41.863282 20.121094-7.585937 9.46875-11.753906 21.367188-11.753906 33.496094v18.382812h-16c-8.824219 0-16 7.175782-16 16 0 8.824219 7.175781 16 16 16h16v8c0 27.925782-10.878906 54.191407-30.632812 73.945313l-2.953126 2.949219c.960938 7.488281 1.585938 15.03125 1.585938 22.625v8.199218l40 26.664063 40-26.664063v-31.367187l-42.296875-12.6875 4.59375-15.328125 78.878906 23.664062zm0 0" fill="url(#linear0)"/>
<path d="m113.753906 223.367188c8.941406 13.289062 16.054688 27.746093 21.132813 42.96875 1.539062 4.617187 2.875 9.28125 4.023437 13.976562 11.914063-13.976562 19.113282-31.074219 20.738282-49.335938-17.480469-.191406-31.648438-14.472656-31.648438-32 0-17.648437 14.351562-32 32-32v-2.382812c0-15.753906 5.414062-31.195312 15.257812-43.488281 13.277344-16.609375 33.09375-26.128907 54.359376-26.128907h49.414062c12.289062 0 23.855469 4.542969 32.890625 12.765626l1.351563-1.351563c14.65625-14.65625 22.726562-34.144531 22.726562-54.878906 0-16.679688-5.511719-33.222657-15.519531-46.566407l-3.703125-4.945312c-41.28125 9.910156-84.304688 14.976562-127.664063 14.976562h-4.394531c-62.152344 0-112.71875 50.566407-112.71875 112.71875 0 19.113282 4.902344 38.039063 14.183594 54.738282zm0 0" fill="url(#linear0)"/>
<path d="m338.703125 372.921875-84.101563-23.363281-17.9375 71.722656-52.664062-43.890625-52.664062 43.898437-17.9375-71.722656-84.101563 23.363282c-17.25 4.78125-29.296875 20.628906-29.296875 38.535156v51.511718h368v-51.511718c0-17.90625-12.046875-33.753906-29.296875-38.542969zm0 0" fill="url(#linear0)"/>
<path d="m128.824219 345.273438 11.839843 47.398437 29.984376-24.984375-36.03125-24.023438zm0 0" fill="url(#linear0)"/>
<path d="m227.335938 392.671875 11.839843-47.398437-5.792969-1.609376-36.03125 24.023438zm0 0" fill="url(#linear0)"/>
<path d="m431.191406 310.167969-11.3125-11.3125c18.136719-18.128907 28.121094-42.238281 28.121094-67.878907 0-25.640624-9.984375-49.753906-28.121094-67.878906l11.3125-11.3125c21.160156 21.152344 32.808594 49.269532 32.808594 79.191406 0 29.917969-11.648438 58.039063-32.808594 79.191407zm0 0" fill="url(#linear0)"/>
<path d="m408.566406 287.542969-11.308594-11.3125c12.085938-12.085938 18.742188-28.160157 18.742188-45.253907 0-17.097656-6.65625-33.167968-18.742188-45.257812l11.308594-11.3125c15.105469 15.105469 23.433594 35.203125 23.433594 56.570312 0 21.367188-8.328125 41.464844-23.433594 56.566407zm0 0" fill="url(#linear0)"/>
<path d="m385.945312 264.921875-11.3125-11.3125c6.039063-6.050781 9.367188-14.089844 9.367188-22.632813 0-8.542968-3.328125-16.585937-9.367188-22.632812l11.3125-11.3125c9.0625 9.074219 14.054688 21.121094 14.054688 33.945312 0 12.824219-4.992188 24.871094-14.054688 33.945313zm0 0" fill="url(#linear0)"/></svg>