<?xml version="1.0" encoding="iso-8859-1"?>
<!-- Generator: Adobe Illustrator 19.0.0, SVG Export Plug-In . SVG Version: 6.00 Build 0)  -->
<svg version="1.1" id="Capa_1" xmlns="http://www.w3.org/2000/svg" xmlns:xlink="http://www.w3.org/1999/xlink" x="0px" y="0px"
	 viewBox="0 0 512 512" style="enable-background:new 0 0 512 512;" xml:space="preserve">
<g>
	<g>
		<path d="M15,152c-8.291,0-15,6.709-15,15v180c0,8.291,6.709,15,15,15c24.814,0,45-20.186,45-45V197C60,172.186,39.814,152,15,152z
			"/>
	</g>
</g>
<g>
	<g>
		<path d="M464.299,422h-54.598C400.699,437.3,392,454.999,392,467c0,24.901,20.099,45,45,45c24.9,0,45-20.099,45-45
			C482,454.999,473.301,437.3,464.299,422z"/>
	</g>
</g>
<g>
	<g>
		<path d="M377,182h-61.978c-39.258-38.291-106.787-38.291-146.045,0H90v150h78.978c39.258,38.291,106.787,38.291,146.045,0H347
			c8.276,0,15,6.724,15,15v30c0,8.291,6.709,15,15,15h120c8.291,0,15-6.709,15-15v-60C512,242.557,451.443,182,377,182z"/>
	</g>
</g>
<g>
	<g>
		<path d="M362,0c-5.7,0-15.192,2.695-23.282,7.282C329.781,12.349,319.633,15,309.359,15H174.641
			c-10.338,0-20.365-2.62-29.359-7.718C137.192,2.695,127.7,0,122,0C97.186,0,77,20.186,77,45c0,24.814,20.186,45,45,45
			c5.682,0,15.159-2.688,23.243-7.262C154.227,77.657,164.224,75,174.544,75H212v51.869c9.736-2.113,19.691-3.58,30-3.58
			s20.264,1.467,30,3.58V75h37.456c10.256,0,20.374,2.688,29.301,7.738C346.841,87.312,356.318,90,362,90c24.814,0,45-20.186,45-45
			C407,20.186,386.815,0,362,0z"/>
	</g>
</g>
<g>
</g>
<g>
</g>
<g>
</g>
<g>
</g>
<g>
</g>
<g>
</g>
<g>
</g>
<g>
</g>
<g>
</g>
<g>
</g>
<g>
</g>
<g>
</g>
<g>
</g>
<g>
</g>
<g>
</g>
</svg>
