<?xml version="1.0" encoding="iso-8859-1"?>
<!-- Generator: Adobe Illustrator 19.0.0, SVG Export Plug-In . SVG Version: 6.00 Build 0)  -->
<svg version="1.1" id="Capa_1" xmlns="http://www.w3.org/2000/svg" xmlns:xlink="http://www.w3.org/1999/xlink" x="0px" y="0px"
	 viewBox="0 0 384 384" style="enable-background:new 0 0 384 384;" xml:space="preserve">
<g>
	<g>
		<path d="M304,64H80c-8.832,0-16,7.168-16,16v224c0,8.832,7.168,16,16,16h224c8.832,0,16-7.168,16-16V80
			C320,71.168,312.832,64,304,64z M176,288H96V96h80V288z M288,288h-80V96h80V288z"/>
	</g>
</g>
<g>
	<g>
		<path d="M256,240h-16c-8.832,0-16,7.168-16,16c0,8.832,7.168,16,16,16h16c8.832,0,16-7.168,16-16C272,247.168,264.832,240,256,240
			z"/>
	</g>
</g>
<g>
	<g>
		<path d="M144,240h-16c-8.832,0-16,7.168-16,16c0,8.832,7.168,16,16,16h16c8.832,0,16-7.168,16-16C160,247.168,152.832,240,144,240
			z"/>
	</g>
</g>
<g>
	<g>
		<path d="M368,0H16C7.168,0,0,7.168,0,16v352c0,8.832,7.168,16,16,16h352c8.832,0,16-7.168,16-16V16C384,7.168,376.832,0,368,0z
			 M352,352H32V32h320V352z"/>
	</g>
</g>
<g>
</g>
<g>
</g>
<g>
</g>
<g>
</g>
<g>
</g>
<g>
</g>
<g>
</g>
<g>
</g>
<g>
</g>
<g>
</g>
<g>
</g>
<g>
</g>
<g>
</g>
<g>
</g>
<g>
</g>
</svg>
