<svg id="Capa_1" enable-background="new 0 0 512 512" height="512" viewBox="0 0 512 512" width="512" xmlns="http://www.w3.org/2000/svg"><g><path d="m236 256.001c0 11.046-8.954 20-20 20s-20-8.954-20-20 8.954-20 20-20 20 8.954 20 20zm40 0c0 11.046 8.954 20 20 20s20-8.954 20-20-8.954-20-20-20-20 8.954-20 20zm236-236.001v472c0 11.046-8.954 20-20 20h-472c-11.046 0-20-8.954-20-20v-472c0-11.046 8.954-20 20-20h472c11.046 0 20 8.954 20 20zm-40 20h-432v432h432zm-392 216c0-97.047 78.953-176 176-176s176 78.953 176 176-78.953 176-176 176-176-78.953-176-176zm40 0c0 74.991 61.009 136 136 136s136-61.009 136-136-61.009-136-136-136-136 61.009-136 136z"/></g></svg>